
<?xml version="1.0" encoding="utf-8"?>
<!-- Generator: Adobe Illustrator 24.3.0, SVG Export Plug-In . SVG Version: 6.00 Build 0)  -->
<svg version="1.1" xmlns="http://www.w3.org/2000/svg" xmlns:xlink="http://www.w3.org/1999/xlink" x="0px" y="0px"
	 viewBox="0 0 265.4 241.5" style="enable-background:new 0 0 265.4 241.5;" xml:space="preserve">
<style type="text/css">
	.st0{opacity:0.15;}
	.st1{fill:#333333;}
	.st2{fill:#1A1A1A;}
	.st3{fill:url(#Path_67423_2_);}
	.st4{fill:#333333;stroke:#000000;stroke-width:0.205;stroke-miterlimit:10;}
	.st5{opacity:2.000000e-02;enable-background:new    ;}
	.st6{fill:#B3B3B3;}
	.st7{fill:#F2F2F2;}
	.st8{fill:#FFFFFF;stroke:#CCCCCC;stroke-width:0.158;stroke-miterlimit:10;}
	.st9{fill:#FFFFFF;}
	.st10{fill:#4D4D4D;}
	.st11{fill:#EEA81B;}
	.st12{fill:#FBD255;}
	.st13{fill:#9FB0BF;}
	.st14{fill:#F1B816;}
	.st15{opacity:0.1;enable-background:new    ;}
	.st16{fill:#6285DF;}
	.st17{fill:#93BDED;}
	.st18{fill:#D4DBDF;}
	.st19{opacity:0.4;fill:url(#Path_67524_1_);enable-background:new    ;}
	.st20{fill:#323FB9;}
	.st21{fill:#48D8F5;}
	.st22{fill:#FFDA59;}
	.st23{fill:url(#Path_67704_1_);}
	.st24{fill:#D58A00;}
	.st25{fill:#A2A9AD;}
	.st26{fill:#FBFFFF;}
	.st27{fill:#ECB700;}
	.st28{fill:url(#Path_67713_1_);}
	.st29{fill:#86B0E0;}
	.st30{opacity:0.4;fill:#0A208F;enable-background:new    ;}
	.st31{fill:none;stroke:#021FA0;stroke-width:0.25;stroke-miterlimit:10;}
	.st32{fill:url(#Path_67722_1_);}
	.st33{fill:url(#Path_67731_1_);}
	.st34{fill:url(#Path_67733_1_);}
	.st35{fill:url(#Path_67742_1_);}
	.st36{fill:url(#Path_67744_1_);}
	.st37{fill:url(#Path_67753_1_);}
	.st38{fill:#496CC6;}
	.st39{fill:#95C4DF;}
	.st40{fill:#0A208F;}
</style>
<g id="Bakground">
</g>
<g id="Illustration">
	<g id="Group_23094" transform="translate(682.192 -109.939)">
		<g id="Group_23061" transform="translate(241.134 109.939)">
			<path id="Path_67521" class="st16" d="M-733.7,198.5l-56.1,32.4V78.6l56.1-32.4V198.5z"/>
			<path id="Path_67522" class="st17" d="M-789.8,78.6v152.3l-56.1-32.4V46.2L-789.8,78.6z"/>
			<path id="Path_67523" class="st18" d="M-845.9,46.2l56.1,32.4l56.1-32.4l-56.1-32.4L-845.9,46.2z"/>
			
				<linearGradient id="Path_67524_1_" gradientUnits="userSpaceOnUse" x1="-1156.748" y1="685.6757" x2="-1155.748" y2="685.6757" gradientTransform="matrix(90.057 0 0 -39.187 103520.5469 26914.8828)">
				<stop  offset="0" style="stop-color:#FFFFFF"/>
				<stop  offset="1" style="stop-color:#0A208F"/>
			</linearGradient>
			<path id="Path_67524" class="st19" d="M-789.8,25.7h20.7l35.4,20.5l-32.4,18.7h-23.7l-33.9-19.6L-789.8,25.7z"/>
			<path id="Path_67525" class="st16" d="M-789.8,58.9v4l33.9-19.6v-4L-789.8,58.9z"/>
			<path id="Path_67526" class="st18" d="M-823.7,39.3l33.9,19.6l33.9-19.6l-33.9-19.6L-823.7,39.3z"/>
			<path id="Path_67527" class="st17" d="M-823.7,39.3l33.9,19.6v4l-33.9-19.6V39.3z"/>
			<path id="Path_67528" class="st20" d="M-793.9,82l-47.8-27.6v135.9l47.8,27.6V82z"/>
			<g id="Group_23060" transform="translate(8.614 56.817)">
				<g id="Group_23054">
					<path id="Path_67529" class="st21" d="M-816,32.8l1.5,0.9v-1.8L-816,31V32.8z"/>
					<path id="Path_67530" class="st21" d="M-818.5,31.4l1.5,0.9v-1.8l-1.5-0.9V31.4z"/>
					<path id="Path_67531" class="st21" d="M-821,29.9l1.5,0.9V29l-1.5-0.9V29.9z"/>
					<path id="Path_67532" class="st21" d="M-823.5,28.5l1.5,0.9v-1.8l-1.5-0.9V28.5z"/>
					<path id="Path_67533" class="st21" d="M-831,24.2l1.5,0.9v-1.8l-1.5-0.9V24.2z"/>
					<path id="Path_67534" class="st21" d="M-833.5,22.7l1.5,0.9v-1.8l-1.5-0.9V22.7z"/>
					<path id="Path_67535" class="st21" d="M-836,21.3l1.5,0.9v-1.8l-1.5-0.9V21.3z"/>
					<path id="Path_67536" class="st21" d="M-843.4,17l1.5,0.9v-1.8l-1.5-0.9L-843.4,17z"/>
					<path id="Path_67537" class="st21" d="M-845.9,15.6l1.5,0.9v-1.8l-1.5-0.9V15.6z"/>
					<path id="Path_67538" class="st21" d="M-808.6,39.9l1.5,0.9v-1.8l-1.5-0.9V39.9z"/>
					<path id="Path_67539" class="st21" d="M-811,38.5l1.5,0.9v-1.8l-1.5-0.9V38.5z"/>
					<path id="Path_67540" class="st21" d="M-813.5,37.1l1.5,0.9v-1.8l-1.5-0.9V37.1z"/>
					<path id="Path_67541" class="st21" d="M-816,35.6l1.5,0.9v-1.8l-1.5-0.9V35.6z"/>
					<path id="Path_67542" class="st21" d="M-823.5,31.3l1.5,0.9v-1.8l-1.5-0.9L-823.5,31.3z"/>
					<path id="Path_67543" class="st21" d="M-826,29.9l1.5,0.9V29l-1.5-0.9V29.9z"/>
					<path id="Path_67544" class="st21" d="M-831,27l1.5,0.9v-1.8l-1.5-0.9V27z"/>
					<path id="Path_67545" class="st21" d="M-833.5,25.6l1.5,0.9v-1.8l-1.5-0.9V25.6z"/>
					<path id="Path_67546" class="st21" d="M-838.4,22.7l1.5,0.9v-1.8l-1.5-0.9V22.7z"/>
					<path id="Path_67547" class="st21" d="M-840.9,21.2l1.5,0.9v-1.8l-1.5-0.9V21.2z"/>
					<path id="Path_67548" class="st21" d="M-813.5,39.9l1.5,0.9V39l-1.5-0.9V39.9z"/>
					<path id="Path_67549" class="st21" d="M-818.5,37l1.5,0.9v-1.8l-1.5-0.9V37z"/>
					<path id="Path_67550" class="st21" d="M-821,35.6l1.5,0.9v-1.8l-1.5-0.9V35.6z"/>
					<path id="Path_67551" class="st21" d="M-831,29.8l1.5,0.9v-1.8L-831,28V29.8z"/>
					<path id="Path_67552" class="st21" d="M-833.5,28.4l1.5,0.9v-1.8l-1.5-0.9V28.4z"/>
					<path id="Path_67553" class="st21" d="M-836,26.9l1.5,0.9V26l-1.5-0.9V26.9z"/>
					<path id="Path_67554" class="st21" d="M-838.4,25.5l1.5,0.9v-1.8l-1.5-0.9V25.5z"/>
					<path id="Path_67555" class="st21" d="M-840.9,24.1l1.5,0.9v-1.8l-1.5-0.9V24.1z"/>
					<path id="Path_67556" class="st21" d="M-843.4,22.6l1.5,0.9v-1.8l-1.5-0.9L-843.4,22.6z"/>
					<path id="Path_67557" class="st21" d="M-845.9,21.2l1.5,0.9v-1.8l-1.5-0.9V21.2z"/>
				</g>
				<g id="Group_23055" transform="translate(0 103.022)">
					<path id="Path_67558" class="st21" d="M-816,32.8l1.5,0.9v-1.8L-816,31V32.8z"/>
					<path id="Path_67559" class="st21" d="M-818.5,31.4l1.5,0.9v-1.8l-1.5-0.9V31.4z"/>
					<path id="Path_67560" class="st21" d="M-821,29.9l1.5,0.9V29l-1.5-0.9V29.9z"/>
					<path id="Path_67561" class="st21" d="M-823.5,28.5l1.5,0.9v-1.8l-1.5-0.9V28.5z"/>
					<path id="Path_67562" class="st21" d="M-831,24.2l1.5,0.9v-1.8l-1.5-0.9V24.2z"/>
					<path id="Path_67563" class="st21" d="M-833.5,22.7l1.5,0.9v-1.8l-1.5-0.9V22.7z"/>
					<path id="Path_67564" class="st21" d="M-836,21.3l1.5,0.9v-1.8l-1.5-0.9V21.3z"/>
					<path id="Path_67565" class="st21" d="M-843.4,17l1.5,0.9v-1.8l-1.5-0.9L-843.4,17z"/>
					<path id="Path_67566" class="st21" d="M-845.9,15.6l1.5,0.9v-1.8l-1.5-0.9V15.6z"/>
					<path id="Path_67567" class="st21" d="M-808.6,39.9l1.5,0.9V39l-1.5-0.9V39.9z"/>
					<path id="Path_67568" class="st21" d="M-811,38.5l1.5,0.9v-1.8l-1.5-0.9V38.5z"/>
					<path id="Path_67569" class="st21" d="M-813.5,37.1l1.5,0.9v-1.8l-1.5-0.9V37.1z"/>
					<path id="Path_67570" class="st21" d="M-816,35.6l1.5,0.9v-1.8l-1.5-0.9V35.6z"/>
					<path id="Path_67571" class="st21" d="M-823.5,31.3l1.5,0.9v-1.8l-1.5-0.9L-823.5,31.3z"/>
					<path id="Path_67572" class="st21" d="M-826,29.9l1.5,0.9V29l-1.5-0.9V29.9z"/>
					<path id="Path_67573" class="st21" d="M-831,27l1.5,0.9v-1.8l-1.5-0.9V27z"/>
					<path id="Path_67574" class="st21" d="M-833.5,25.6l1.5,0.9v-1.8l-1.5-0.9V25.6z"/>
					<path id="Path_67575" class="st21" d="M-838.4,22.7l1.5,0.9v-1.8l-1.5-0.9V22.7z"/>
					<path id="Path_67576" class="st21" d="M-840.9,21.2l1.5,0.9v-1.8l-1.5-0.9V21.2z"/>
					<path id="Path_67577" class="st21" d="M-813.5,39.9l1.5,0.9V39l-1.5-0.9V39.9z"/>
					<path id="Path_67578" class="st21" d="M-818.5,37l1.5,0.9v-1.8l-1.5-0.9V37z"/>
					<path id="Path_67579" class="st21" d="M-821,35.6l1.5,0.9v-1.8l-1.5-0.9V35.6z"/>
					<path id="Path_67580" class="st21" d="M-831,29.8l1.5,0.9v-1.8L-831,28V29.8z"/>
					<path id="Path_67581" class="st21" d="M-833.5,28.4l1.5,0.9v-1.8l-1.5-0.9V28.4z"/>
					<path id="Path_67582" class="st21" d="M-836,26.9l1.5,0.9V26l-1.5-0.9V26.9z"/>
					<path id="Path_67583" class="st21" d="M-838.4,25.5l1.5,0.9v-1.8l-1.5-0.9V25.5z"/>
					<path id="Path_67584" class="st21" d="M-840.9,24.1l1.5,0.9v-1.8l-1.5-0.9V24.1z"/>
					<path id="Path_67585" class="st21" d="M-843.4,22.6l1.5,0.9v-1.8l-1.5-0.9L-843.4,22.6z"/>
					<path id="Path_67586" class="st21" d="M-845.9,21.2l1.5,0.9v-1.8l-1.5-0.9V21.2z"/>
				</g>
				<g id="Group_23056" transform="translate(0 22.06)">
					<path id="Path_67587" class="st21" d="M-808.6,35.7l1.5,0.9v-1.8l-1.5-0.9V35.7z"/>
					<path id="Path_67588" class="st21" d="M-811,34.2l1.5,0.9v-1.8l-1.5-0.9V34.2z"/>
					<path id="Path_67589" class="st21" d="M-813.5,32.8l1.5,0.9v-1.8l-1.5-0.9V32.8z"/>
					<path id="Path_67590" class="st21" d="M-823.5,27.1l1.5,0.9v-1.8l-1.5-0.9V27.1z"/>
					<path id="Path_67591" class="st21" d="M-826,25.6l1.5,0.9v-1.8l-1.5-0.9V25.6z"/>
					<path id="Path_67592" class="st21" d="M-831,22.7l1.5,0.9v-1.8L-831,21V22.7z"/>
					<path id="Path_67593" class="st21" d="M-833.5,21.3l1.5,0.9v-1.8l-1.5-0.9V21.3z"/>
					<path id="Path_67594" class="st21" d="M-838.4,18.4l1.5,0.9v-1.8l-1.5-0.9V18.4z"/>
					<path id="Path_67595" class="st21" d="M-840.9,17l1.5,0.9v-1.8l-1.5-0.9V17z"/>
					<path id="Path_67596" class="st21" d="M-843.4,15.6l1.5,0.9v-1.8l-1.5-0.9L-843.4,15.6z"/>
					<path id="Path_67597" class="st21" d="M-816,34.2l1.5,0.9v-1.8l-1.5-0.9V34.2z"/>
					<path id="Path_67598" class="st21" d="M-818.5,32.7l1.5,0.9v-1.8l-1.5-0.9V32.7z"/>
					<path id="Path_67599" class="st21" d="M-821,31.3l1.5,0.9v-1.8l-1.5-0.9V31.3z"/>
					<path id="Path_67600" class="st21" d="M-826,28.4l1.5,0.9v-1.8l-1.5-0.9V28.4z"/>
					<path id="Path_67601" class="st21" d="M-828.5,27l1.5,0.9v-1.8l-1.5-0.9V27z"/>
					<path id="Path_67602" class="st21" d="M-831,25.6l1.5,0.9v-1.8l-1.5-0.9V25.6z"/>
					<path id="Path_67603" class="st21" d="M-840.9,19.8l1.5,0.9v-1.8l-1.5-0.9V19.8z"/>
					<path id="Path_67604" class="st21" d="M-843.4,18.4l1.5,0.9v-1.8l-1.5-0.9L-843.4,18.4z"/>
					<path id="Path_67605" class="st21" d="M-845.9,16.9l1.5,0.9V16l-1.5-0.9V16.9z"/>
					<path id="Path_67606" class="st21" d="M-813.5,38.4l1.5,0.9v-1.8l-1.5-0.9V38.4z"/>
					<path id="Path_67607" class="st21" d="M-816,37l1.5,0.9v-1.8l-1.5-0.9V37z"/>
					<path id="Path_67608" class="st21" d="M-818.5,35.6l1.5,0.9v-1.8l-1.5-0.9V35.6z"/>
					<path id="Path_67609" class="st21" d="M-821,34.1l1.5,0.9v-1.8l-1.5-0.9V34.1z"/>
					<path id="Path_67610" class="st21" d="M-831,28.4l1.5,0.9v-1.8l-1.5-0.9V28.4z"/>
					<path id="Path_67611" class="st21" d="M-833.5,26.9l1.5,0.9V26l-1.5-0.9V26.9z"/>
					<path id="Path_67612" class="st21" d="M-838.4,24.1l1.5,0.9v-1.8l-1.5-0.9V24.1z"/>
					<path id="Path_67613" class="st21" d="M-840.9,22.6l1.5,0.9v-1.8l-1.5-0.9V22.6z"/>
				</g>
				<g id="Group_23057" transform="translate(0 41.245)">
					<path id="Path_67614" class="st21" d="M-808.6,37.1l1.5,0.9v-1.8l-1.5-0.9V37.1z"/>
					<path id="Path_67615" class="st21" d="M-811,35.7l1.5,0.9v-1.8l-1.5-0.9V35.7z"/>
					<path id="Path_67616" class="st21" d="M-813.5,34.2l1.5,0.9v-1.8l-1.5-0.9V34.2z"/>
					<path id="Path_67617" class="st21" d="M-816,32.8l1.5,0.9v-1.8L-816,31V32.8z"/>
					<path id="Path_67618" class="st21" d="M-818.5,31.4l1.5,0.9v-1.8l-1.5-0.9V31.4z"/>
					<path id="Path_67619" class="st21" d="M-821,29.9l1.5,0.9V29l-1.5-0.9V29.9z"/>
					<path id="Path_67620" class="st21" d="M-828.5,25.6l1.5,0.9v-1.8l-1.5-0.9V25.6z"/>
					<path id="Path_67621" class="st21" d="M-833.5,22.7l1.5,0.9v-1.8l-1.5-0.9V22.7z"/>
					<path id="Path_67622" class="st21" d="M-838.4,19.9l1.5,0.9V19l-1.5-0.9V19.9z"/>
					<path id="Path_67623" class="st21" d="M-840.9,18.4l1.5,0.9v-1.8l-1.5-0.9V18.4z"/>
					<path id="Path_67624" class="st21" d="M-845.9,15.6l1.5,0.9v-1.8l-1.5-0.9V15.6z"/>
					<path id="Path_67625" class="st21" d="M-816,35.6l1.5,0.9v-1.8l-1.5-0.9V35.6z"/>
					<path id="Path_67626" class="st21" d="M-818.5,34.2l1.5,0.9v-1.8l-1.5-0.9V34.2z"/>
					<path id="Path_67627" class="st21" d="M-821,32.7l1.5,0.9v-1.8L-821,31V32.7z"/>
					<path id="Path_67628" class="st21" d="M-823.5,31.3l1.5,0.9v-1.8l-1.5-0.9L-823.5,31.3z"/>
					<path id="Path_67629" class="st21" d="M-826,29.9l1.5,0.9V29l-1.5-0.9V29.9z"/>
					<path id="Path_67630" class="st21" d="M-828.5,28.4l1.5,0.9v-1.8l-1.5-0.9V28.4z"/>
					<path id="Path_67631" class="st21" d="M-831,27l1.5,0.9v-1.8l-1.5-0.9V27z"/>
					<path id="Path_67632" class="st21" d="M-836,24.1l1.5,0.9v-1.8l-1.5-0.9V24.1z"/>
					<path id="Path_67633" class="st21" d="M-840.9,21.2l1.5,0.9v-1.8l-1.5-0.9V21.2z"/>
					<path id="Path_67634" class="st21" d="M-843.4,19.8l1.5,0.9v-1.8l-1.5-0.9L-843.4,19.8z"/>
					<path id="Path_67635" class="st21" d="M-845.9,18.4l1.5,0.9v-1.8l-1.5-0.9V18.4z"/>
					<path id="Path_67636" class="st21" d="M-808.6,42.7l1.5,0.9v-1.8l-1.5-0.9V42.7z"/>
					<path id="Path_67637" class="st21" d="M-811,41.3l1.5,0.9v-1.8l-1.5-0.9V41.3z"/>
					<path id="Path_67638" class="st21" d="M-821,35.6l1.5,0.9v-1.8l-1.5-0.9V35.6z"/>
					<path id="Path_67639" class="st21" d="M-823.5,34.1l1.5,0.9v-1.8l-1.5-0.9L-823.5,34.1z"/>
					<path id="Path_67640" class="st21" d="M-828.5,31.2l1.5,0.9v-1.8l-1.5-0.9V31.2z"/>
					<path id="Path_67641" class="st21" d="M-831,29.8l1.5,0.9v-1.8L-831,28V29.8z"/>
					<path id="Path_67642" class="st21" d="M-836,26.9l1.5,0.9V26l-1.5-0.9V26.9z"/>
					<path id="Path_67643" class="st21" d="M-838.4,25.5l1.5,0.9v-1.8l-1.5-0.9V25.5z"/>
				</g>
				<g id="Group_23058" transform="translate(0 61.866)">
					<path id="Path_67644" class="st21" d="M-811,35.7l1.5,0.9v-1.8l-1.5-0.9V35.7z"/>
					<path id="Path_67645" class="st21" d="M-813.5,34.3l1.5,0.9v-1.8l-1.5-0.9V34.3z"/>
					<path id="Path_67646" class="st21" d="M-816,32.8l1.5,0.9v-1.8L-816,31V32.8z"/>
					<path id="Path_67647" class="st21" d="M-818.5,31.4l1.5,0.9v-1.8l-1.5-0.9V31.4z"/>
					<path id="Path_67648" class="st21" d="M-828.5,25.6l1.5,0.9v-1.8l-1.5-0.9V25.6z"/>
					<path id="Path_67649" class="st21" d="M-836,21.3l1.5,0.9v-1.8l-1.5-0.9V21.3z"/>
					<path id="Path_67650" class="st21" d="M-838.4,19.9l1.5,0.9V19l-1.5-0.9V19.9z"/>
					<path id="Path_67651" class="st21" d="M-843.4,17l1.5,0.9v-1.8l-1.5-0.9L-843.4,17z"/>
					<path id="Path_67652" class="st21" d="M-845.9,15.6l1.5,0.9v-1.8l-1.5-0.9V15.6z"/>
					<path id="Path_67653" class="st21" d="M-808.6,39.9l1.5,0.9V39l-1.5-0.9V39.9z"/>
					<path id="Path_67654" class="st21" d="M-811,38.5l1.5,0.9v-1.8l-1.5-0.9V38.5z"/>
					<path id="Path_67655" class="st21" d="M-818.5,34.2l1.5,0.9v-1.8l-1.5-0.9V34.2z"/>
					<path id="Path_67656" class="st21" d="M-821,32.7l1.5,0.9v-1.8L-821,31V32.7z"/>
					<path id="Path_67657" class="st21" d="M-826,29.9l1.5,0.9V29l-1.5-0.9V29.9z"/>
					<path id="Path_67658" class="st21" d="M-828.5,28.4l1.5,0.9v-1.8l-1.5-0.9V28.4z"/>
					<path id="Path_67659" class="st21" d="M-831,27l1.5,0.9v-1.8l-1.5-0.9V27z"/>
					<path id="Path_67660" class="st21" d="M-833.5,25.6l1.5,0.9v-1.8l-1.5-0.9V25.6z"/>
					<path id="Path_67661" class="st21" d="M-840.9,21.2l1.5,0.9v-1.8l-1.5-0.9V21.2z"/>
					<path id="Path_67662" class="st21" d="M-813.5,39.9l1.5,0.9V39l-1.5-0.9V39.9z"/>
					<path id="Path_67663" class="st21" d="M-816,38.4l1.5,0.9v-1.8l-1.5-0.9V38.4z"/>
					<path id="Path_67664" class="st21" d="M-818.5,37l1.5,0.9v-1.8l-1.5-0.9V37z"/>
					<path id="Path_67665" class="st21" d="M-823.5,34.1l1.5,0.9v-1.8l-1.5-0.9L-823.5,34.1z"/>
					<path id="Path_67666" class="st21" d="M-826,32.7l1.5,0.9v-1.8l-1.5-0.9V32.7z"/>
					<path id="Path_67667" class="st21" d="M-828.5,31.2l1.5,0.9v-1.8l-1.5-0.9V31.2z"/>
					<path id="Path_67668" class="st21" d="M-836,26.9l1.5,0.9V26l-1.5-0.9V26.9z"/>
					<path id="Path_67669" class="st21" d="M-838.4,25.5l1.5,0.9v-1.8l-1.5-0.9V25.5z"/>
					<path id="Path_67670" class="st21" d="M-840.9,24.1l1.5,0.9v-1.8l-1.5-0.9V24.1z"/>
					<path id="Path_67671" class="st21" d="M-845.9,21.2l1.5,0.9v-1.8l-1.5-0.9V21.2z"/>
				</g>
				<g id="Group_23059" transform="translate(0 83.926)">
					<path id="Path_67672" class="st21" d="M-808.6,35.7l1.5,0.9v-1.8l-1.5-0.9V35.7z"/>
					<path id="Path_67673" class="st21" d="M-811,34.2l1.5,0.9v-1.8l-1.5-0.9V34.2z"/>
					<path id="Path_67674" class="st21" d="M-813.5,32.8l1.5,0.9v-1.8l-1.5-0.9V32.8z"/>
					<path id="Path_67675" class="st21" d="M-821,28.5l1.5,0.9v-1.8l-1.5-0.9V28.5z"/>
					<path id="Path_67676" class="st21" d="M-826,25.6l1.5,0.9v-1.8l-1.5-0.9V25.6z"/>
					<path id="Path_67677" class="st21" d="M-828.5,24.2l1.5,0.9v-1.8l-1.5-0.9V24.2z"/>
					<path id="Path_67678" class="st21" d="M-831,22.7l1.5,0.9v-1.8L-831,21V22.7z"/>
					<path id="Path_67679" class="st21" d="M-838.4,18.4l1.5,0.9v-1.8l-1.5-0.9V18.4z"/>
					<path id="Path_67680" class="st21" d="M-843.4,15.6l1.5,0.9v-1.8l-1.5-0.9L-843.4,15.6z"/>
					<path id="Path_67681" class="st21" d="M-808.6,38.5l1.5,0.9v-1.8l-1.5-0.9V38.5z"/>
					<path id="Path_67682" class="st21" d="M-811,37.1l1.5,0.9v-1.8l-1.5-0.9V37.1z"/>
					<path id="Path_67683" class="st21" d="M-813.5,35.6l1.5,0.9v-1.8l-1.5-0.9V35.6z"/>
					<path id="Path_67684" class="st21" d="M-818.5,32.7l1.5,0.9v-1.8l-1.5-0.9V32.7z"/>
					<path id="Path_67685" class="st21" d="M-821,31.3l1.5,0.9v-1.8l-1.5-0.9V31.3z"/>
					<path id="Path_67686" class="st21" d="M-823.5,29.9l1.5,0.9V29l-1.5-0.9L-823.5,29.9z"/>
					<path id="Path_67687" class="st21" d="M-826,28.4l1.5,0.9v-1.8l-1.5-0.9V28.4z"/>
					<path id="Path_67688" class="st21" d="M-833.5,24.1l1.5,0.9v-1.8l-1.5-0.9V24.1z"/>
					<path id="Path_67689" class="st21" d="M-836,22.7l1.5,0.9v-1.8l-1.5-0.9V22.7z"/>
					<path id="Path_67690" class="st21" d="M-840.9,19.8l1.5,0.9v-1.8l-1.5-0.9V19.8z"/>
					<path id="Path_67691" class="st21" d="M-843.4,18.4l1.5,0.9v-1.8l-1.5-0.9L-843.4,18.4z"/>
					<path id="Path_67692" class="st21" d="M-845.9,16.9l1.5,0.9V16l-1.5-0.9V16.9z"/>
					<path id="Path_67693" class="st21" d="M-811,39.9l1.5,0.9V39l-1.5-0.9V39.9z"/>
					<path id="Path_67694" class="st21" d="M-813.5,38.4l1.5,0.9v-1.8l-1.5-0.9V38.4z"/>
					<path id="Path_67695" class="st21" d="M-816,37l1.5,0.9v-1.8l-1.5-0.9V37z"/>
					<path id="Path_67696" class="st21" d="M-818.5,35.6l1.5,0.9v-1.8l-1.5-0.9V35.6z"/>
					<path id="Path_67697" class="st21" d="M-826,31.2l1.5,0.9v-1.8l-1.5-0.9V31.2z"/>
					<path id="Path_67698" class="st21" d="M-828.5,29.8l1.5,0.9v-1.8l-1.5-0.9V29.8z"/>
					<path id="Path_67699" class="st21" d="M-833.5,26.9l1.5,0.9V26l-1.5-0.9V26.9z"/>
					<path id="Path_67700" class="st21" d="M-836,25.5l1.5,0.9v-1.8l-1.5-0.9V25.5z"/>
					<path id="Path_67701" class="st21" d="M-838.4,24.1l1.5,0.9v-1.8l-1.5-0.9V24.1z"/>
					<path id="Path_67702" class="st21" d="M-840.9,22.6l1.5,0.9v-1.8l-1.5-0.9V22.6z"/>
				</g>
			</g>
		</g>
		<g id="Group_23065" transform="translate(376.897 179.361)">
			<path id="Path_67703" class="st22" d="M-828.6,24.9l17.8-10.3c0.5-0.3,1.1-0.4,1.6-0.4c-0.7-0.6-1.7-0.6-2.4-0.1l-17.6,10.2
				L-828.6,24.9z"/>
			
				<linearGradient id="Path_67704_1_" gradientUnits="userSpaceOnUse" x1="-1302.3992" y1="617.4531" x2="-1302.4872" y2="617.3731" gradientTransform="matrix(40.757 0 0 -53.2033 52248.2656 32888.7812)">
				<stop  offset="0" style="stop-color:#FFDA59"/>
				<stop  offset="1" style="stop-color:#A16800"/>
			</linearGradient>
			<path id="Path_67704" class="st23" d="M-807.4,16.7l-31.4,18.1c-1.7,1.1-2.8,3-2.9,5.1l0,3.2v24.2c0,1.1-0.8,1.5-1.7,1
				c-1-0.7-1.6-1.8-1.7-3V38.1l0,0l0-4.4c0.1-2.1,1.2-3.9,2.9-5.1l10.4-6l-0.6-0.5l-10.5,6.1c-1.7,1.1-2.8,3-2.9,5.1l0,4.5l0,0V65
				c0.1,1.7,1,3.3,2.4,4.2c1.3,0.8,2.4,0.1,2.4-1.4V40.5l0,0v-0.2c0.1-2.1,1.2-3.9,2.9-5.1l31.4-18.1c0.5-0.3,1-0.4,1.5-0.4
				C-805.8,16.2-806.8,16.2-807.4,16.7z"/>
			<path id="Path_67705" class="st24" d="M-845.1,33.7l0,4.4l0,0v27.3c0.1,1.2,0.7,2.3,1.7,3c0.9,0.5,1.7,0.1,1.7-1V43.2l0-3.2
				c0.1-2.1,1.2-3.9,2.9-5.1l31-17.9v-0.6c0-1.9-1.3-2.6-2.9-1.7l-17.8,10.3l-3.1-2.4l-10.5,6.1C-843.9,29.7-845,31.6-845.1,33.7z"
				/>
			<g id="Group_23062" transform="translate(1.941 0)">
				<path id="Path_67706" class="st25" d="M-845.5,34.2l-0.4-0.3v32.3l0.4,0.3V34.2z"/>
				<path id="Path_67707" class="st26" d="M-811,13.8l-34.9,20.1l0.4,0.3l34.9-20.1L-811,13.8z"/>
				<path id="Path_67708" class="st18" d="M-810.6,14l-34.9,20.1v32.3l34.9-20.1V14z"/>
			</g>
			<g id="Group_23063" transform="translate(2.752 0.449)">
				<path id="Path_67709" class="st25" d="M-845.5,34.2l-0.4-0.3v32.3l0.4,0.3V34.2z"/>
				<path id="Path_67710" class="st26" d="M-811.1,13.8l-34.9,20.1l0.4,0.3l34.9-20.1L-811.1,13.8z"/>
				<path id="Path_67711" class="st18" d="M-810.6,14l-34.9,20.1v32.3l34.9-20.1V14z"/>
			</g>
			<g id="Group_23064" transform="translate(2.614 2.544)">
				<path id="Path_67712" class="st27" d="M-809.3,14.5l-31.4,18.1c-1.7,1.1-2.8,3-2.9,5.1V38l0,0v27.3c0.1,0.6-0.2,1.2-0.7,1.6l0,0
					l37.2-21.5c0.6-0.3,0.9-1,0.8-1.6V16.2C-806.4,14.3-807.7,13.6-809.3,14.5z"/>
				
					<linearGradient id="Path_67713_1_" gradientUnits="userSpaceOnUse" x1="-1306.0225" y1="614.8643" x2="-1306.1165" y2="614.7843" gradientTransform="matrix(38.145 0 0 -53.2016 48984.8047 32749.877)">
					<stop  offset="0" style="stop-color:#FFDA59"/>
					<stop  offset="1" style="stop-color:#A16800"/>
				</linearGradient>
				<path id="Path_67713" class="st28" d="M-810.1,14.2l-31.4,18.1c-1.7,1.1-2.8,3-2.9,5.1l0,3.2v24.2c0,1-0.7,1.5-1.5,1.1v0.8
					c1.3,0.6,2.3,0,2.3-1.5V38l0,0v-0.2c0.1-2.1,1.2-3.9,2.9-5.1l31.4-18.1c0.5-0.3,1-0.4,1.5-0.4
					C-808.5,13.6-809.4,13.7-810.1,14.2z"/>
			</g>
		</g>
		<g id="Group_23083" transform="translate(301.725 238.809)">
			<g id="Group_23066" transform="translate(14.531 5.13)">
				<path id="Path_67714" class="st29" d="M-824.9,15.1l-21,12.1l71.2,41.1V44.2L-824.9,15.1z"/>
				<path id="Path_67715" class="st18" d="M-822.6,13.8l-2.4,1.4l50.2,29.1l2.4-1.4L-822.6,13.8z"/>
				<path id="Path_67716" class="st30" d="M-818.4,18.9l-6.5-3.8l-21,12.1l27.5,15.9V18.9z"/>
				<path id="Path_67717" class="st30" d="M-822.6,13.8l-2.4,1.4l6.3,3.7l2.4-1.4L-822.6,13.8z"/>
			</g>
			<path id="Path_67718" class="st20" d="M-799.1,45.8l-46.8,27v-32l46.8-27L-799.1,45.8z"/>
			<g id="Group_23067" transform="translate(46.186 34.2)">
				<path id="Path_67719" class="st31" d="M-843.5,36.6l-2.4,1.4v24.2l2.4-1.4V36.6z"/>
				<path id="Path_67720" class="st31" d="M-804,13.8l-2.4,1.4v24.2l2.4-1.4L-804,13.8z"/>
			</g>
			<g id="Group_23071" transform="translate(10.356 7.691)">
				<path id="Path_67721" class="st22" d="M-828.6,24.9l17.8-10.3c0.5-0.3,1.1-0.4,1.6-0.4c-0.7-0.6-1.7-0.6-2.4-0.1l-17.6,10.2
					L-828.6,24.9z"/>
				
					<linearGradient id="Path_67722_1_" gradientUnits="userSpaceOnUse" x1="-1237.5824" y1="550.3141" x2="-1237.6704" y2="550.2341" gradientTransform="matrix(40.759 0 0 -53.2034 49608.9883 29316.832)">
					<stop  offset="0" style="stop-color:#FFDA59"/>
					<stop  offset="1" style="stop-color:#A16800"/>
				</linearGradient>
				<path id="Path_67722" class="st32" d="M-807.4,16.7l-31.4,18.1c-1.7,1.1-2.8,3-2.9,5.1l0,3.2v24.2c0,1.1-0.8,1.5-1.7,1
					c-1-0.7-1.6-1.8-1.7-3V38.1l0,0l0.1-4.4c0.1-2.1,1.2-3.9,2.9-5.1l10.4-6l-0.6-0.5l-10.5,6.1c-1.7,1.1-2.8,3-2.9,5.1l0,4.5l0,0
					V65c0.1,1.7,1,3.3,2.4,4.2c1.3,0.8,2.4,0.1,2.4-1.4V40.5l0,0v-0.2c0.1-2.1,1.2-3.9,2.9-5.1l31.4-18.1c0.5-0.3,1-0.4,1.5-0.4
					C-805.8,16.2-806.8,16.2-807.4,16.7z"/>
				<path id="Path_67723" class="st24" d="M-845.1,33.7l-0.1,4.4l0,0v27.3c0.1,1.2,0.7,2.3,1.7,3c0.9,0.5,1.7,0.1,1.7-1V43.2l0-3.2
					c0.1-2.1,1.2-3.9,2.9-5.1l31-17.9v-0.6c0-1.9-1.3-2.6-2.9-1.7l-17.8,10.3l-3.1-2.4l-10.5,6.1C-843.9,29.7-845,31.6-845.1,33.7z"
					/>
				<g id="Group_23068" transform="translate(1.942)">
					<path id="Path_67724" class="st25" d="M-845.5,34.2l-0.4-0.3v32.3l0.4,0.3V34.2z"/>
					<path id="Path_67725" class="st26" d="M-811,13.8l-34.9,20.1l0.4,0.3l34.9-20.1L-811,13.8z"/>
					<path id="Path_67726" class="st18" d="M-810.6,14l-34.9,20.1v32.3l34.9-20.1V14z"/>
				</g>
				<g id="Group_23069" transform="translate(2.752 0.449)">
					<path id="Path_67727" class="st25" d="M-845.5,34.2l-0.4-0.3v32.3l0.4,0.3V34.2z"/>
					<path id="Path_67728" class="st26" d="M-811.1,13.8l-34.9,20.1l0.4,0.3l34.9-20.1L-811.1,13.8z"/>
					<path id="Path_67729" class="st18" d="M-810.6,14l-34.9,20.1v32.3l34.9-20.1V14z"/>
				</g>
				<g id="Group_23070" transform="translate(2.615 2.544)">
					<path id="Path_67730" class="st27" d="M-809.3,14.5l-31.4,18.1c-1.7,1.1-2.8,3-2.9,5.1V38l0,0v27.3c0.1,0.6-0.2,1.2-0.7,1.6
						l0,0l37.2-21.5c0.6-0.3,0.9-1,0.8-1.6V16.2C-806.4,14.3-807.7,13.6-809.3,14.5z"/>
					
						<linearGradient id="Path_67731_1_" gradientUnits="userSpaceOnUse" x1="-1241.2062" y1="547.7254" x2="-1241.3002" y2="547.6454" gradientTransform="matrix(38.148 0 0 -53.2032 46516.1758 29178.8184)">
						<stop  offset="0" style="stop-color:#FFDA59"/>
						<stop  offset="1" style="stop-color:#A16800"/>
					</linearGradient>
					<path id="Path_67731" class="st33" d="M-810.1,14.2l-31.4,18.1c-1.7,1.1-2.8,3-2.9,5.1l0,3.2v24.2c0,1-0.7,1.5-1.5,1.1v0.8
						c1.3,0.6,2.3,0,2.3-1.5V38l0,0v-0.2c0.1-2.1,1.2-3.9,2.9-5.1l31.4-18.1c0.5-0.3,1-0.4,1.5-0.4
						C-808.5,13.6-809.4,13.7-810.1,14.2z"/>
				</g>
			</g>
			<g id="Group_23075" transform="translate(18.237 12.36)">
				<path id="Path_67732" class="st22" d="M-828.6,24.9l17.8-10.3c0.5-0.3,1.1-0.4,1.6-0.4c-0.7-0.6-1.7-0.6-2.4-0.1l-17.6,10.2
					L-828.6,24.9z"/>
				
					<linearGradient id="Path_67733_1_" gradientUnits="userSpaceOnUse" x1="-1245.4634" y1="545.6452" x2="-1245.5514" y2="545.5652" gradientTransform="matrix(40.759 0 0 -53.2047 49930.207 29069.1152)">
					<stop  offset="0" style="stop-color:#FFDA59"/>
					<stop  offset="1" style="stop-color:#A16800"/>
				</linearGradient>
				<path id="Path_67733" class="st34" d="M-807.4,16.7l-31.4,18.1c-1.7,1.1-2.8,3-2.9,5.1l0,3.2v24.2c0,1.1-0.8,1.5-1.7,1
					c-1-0.7-1.6-1.8-1.7-3V38.1l0,0l0.1-4.4c0.1-2.1,1.2-3.9,2.9-5.1l10.4-6l-0.6-0.5l-10.5,6.1c-1.7,1.1-2.8,3-2.9,5.1l0,4.5l0,0
					V65c0.1,1.7,1,3.3,2.4,4.2c1.3,0.8,2.4,0.1,2.4-1.4V40.5l0,0v-0.2c0.1-2.1,1.2-3.9,2.9-5.1l31.4-18.1c0.5-0.3,1-0.4,1.5-0.4
					C-805.8,16.2-806.8,16.2-807.4,16.7z"/>
				<path id="Path_67734" class="st24" d="M-845.1,33.7l-0.1,4.4l0,0v27.3c0.1,1.2,0.7,2.3,1.7,3c0.9,0.5,1.7,0.1,1.7-1V43.2l0-3.2
					c0.1-2.1,1.2-3.9,2.9-5.1l31-17.9v-0.6c0-1.9-1.3-2.6-2.9-1.7l-17.8,10.3l-3.1-2.4l-10.5,6.1C-843.9,29.7-845,31.6-845.1,33.7z"
					/>
				<g id="Group_23072" transform="translate(1.941)">
					<path id="Path_67735" class="st25" d="M-845.5,34.2l-0.4-0.3v32.3l0.4,0.3V34.2z"/>
					<path id="Path_67736" class="st26" d="M-811,13.8l-34.9,20.1l0.4,0.3l34.9-20.1L-811,13.8z"/>
					<path id="Path_67737" class="st18" d="M-810.6,14l-34.9,20.1v32.3l34.9-20.1V14z"/>
				</g>
				<g id="Group_23073" transform="translate(2.752 0.449)">
					<path id="Path_67738" class="st25" d="M-845.5,34.2l-0.4-0.3v32.3l0.4,0.3V34.2z"/>
					<path id="Path_67739" class="st26" d="M-811.1,13.8l-34.9,20.1l0.4,0.3l34.9-20.1L-811.1,13.8z"/>
					<path id="Path_67740" class="st18" d="M-810.6,14l-34.9,20.1v32.2l34.9-20.1V14z"/>
				</g>
				<g id="Group_23074" transform="translate(2.614 2.544)">
					<path id="Path_67741" class="st27" d="M-809.3,14.5l-31.4,18.1c-1.7,1.1-2.8,3-2.9,5.1V38l0,0v27.3c0.1,0.6-0.2,1.2-0.7,1.6
						l0,0l37.2-21.5c0.6-0.3,0.9-1,0.8-1.6V16.2C-806.4,14.3-807.7,13.6-809.3,14.5z"/>
					
						<linearGradient id="Path_67742_1_" gradientUnits="userSpaceOnUse" x1="-1249.0874" y1="543.0563" x2="-1249.1814" y2="542.9763" gradientTransform="matrix(38.145 0 0 -53.2013 46813.1016 28929.3984)">
						<stop  offset="0" style="stop-color:#FFDA59"/>
						<stop  offset="1" style="stop-color:#A16800"/>
					</linearGradient>
					<path id="Path_67742" class="st35" d="M-810,14.2l-31.4,18.1c-1.7,1.1-2.8,3-2.9,5.1l0,3.2v24.2c0,1-0.7,1.5-1.5,1.1v0.8
						c1.3,0.6,2.3,0,2.3-1.5V38l0,0v-0.2c0.1-2.1,1.2-3.9,2.9-5.1l31.4-18.1c0.5-0.3,1-0.4,1.5-0.4C-808.5,13.6-809.4,13.7-810,14.2
						z"/>
				</g>
			</g>
			<g id="Group_23079" transform="translate(27.317 17.88)">
				<path id="Path_67743" class="st22" d="M-828.6,24.9l17.8-10.3c0.5-0.3,1.1-0.4,1.6-0.4c-0.7-0.6-1.7-0.6-2.4-0.1l-17.6,10.2
					L-828.6,24.9z"/>
				
					<linearGradient id="Path_67744_1_" gradientUnits="userSpaceOnUse" x1="-1254.5438" y1="540.125" x2="-1254.6317" y2="540.045" gradientTransform="matrix(40.758 0 0 -53.2014 50299.0547 28773.666)">
					<stop  offset="0" style="stop-color:#FFDA59"/>
					<stop  offset="1" style="stop-color:#A16800"/>
				</linearGradient>
				<path id="Path_67744" class="st36" d="M-807.4,16.7l-31.4,18.1c-1.7,1.1-2.8,3-2.9,5.1l0,3.2v24.2c0,1.1-0.8,1.5-1.7,1
					c-1-0.7-1.6-1.8-1.7-3V38.1l0,0l0.1-4.4c0.1-2.1,1.2-3.9,2.9-5.1l10.4-6l-0.6-0.5l-10.5,6.1c-1.7,1.1-2.8,3-2.9,5.1l0,4.5l0,0
					V65c0.1,1.7,1,3.3,2.4,4.2c1.4,0.8,2.4,0.1,2.4-1.4V40.5l0,0v-0.2c0.1-2.1,1.2-3.9,2.9-5.1l31.4-18.1c0.5-0.3,1-0.4,1.5-0.4
					C-805.8,16.2-806.8,16.2-807.4,16.7z"/>
				<path id="Path_67745" class="st24" d="M-845.1,33.7l-0.1,4.4l0,0v27.3c0.1,1.2,0.7,2.3,1.7,3c0.9,0.5,1.7,0.1,1.7-1V43.2l0-3.2
					c0.1-2.1,1.2-3.9,2.9-5.1l31-17.9v-0.6c0-1.9-1.3-2.6-2.9-1.7l-17.8,10.3l-3.1-2.4l-10.5,6.1C-843.9,29.7-845,31.6-845.1,33.7z"
					/>
				<g id="Group_23076" transform="translate(1.941)">
					<path id="Path_67746" class="st25" d="M-845.5,34.2l-0.4-0.3v32.3l0.4,0.3V34.2z"/>
					<path id="Path_67747" class="st26" d="M-811,13.8l-34.9,20.1l0.4,0.3l34.9-20.1L-811,13.8z"/>
					<path id="Path_67748" class="st18" d="M-810.6,14l-34.9,20.1v32.3l34.9-20.1V14z"/>
				</g>
				<g id="Group_23077" transform="translate(2.752 0.449)">
					<path id="Path_67749" class="st25" d="M-845.5,34.2l-0.4-0.3v32.3l0.4,0.3V34.2z"/>
					<path id="Path_67750" class="st26" d="M-811.1,13.8l-34.9,20.1l0.4,0.3l34.9-20.1L-811.1,13.8z"/>
					<path id="Path_67751" class="st18" d="M-810.6,14l-34.9,20.1v32.3l34.9-20.1V14z"/>
				</g>
				<g id="Group_23078" transform="translate(2.614 2.544)">
					<path id="Path_67752" class="st27" d="M-809.3,14.5l-31.4,18.1c-1.7,1.1-2.8,3-2.9,5.1V38l0,0v27.3c0.1,0.6-0.2,1.2-0.7,1.6
						l0,0l37.2-21.5c0.6-0.3,0.9-1,0.8-1.6V16.2C-806.4,14.3-807.7,13.6-809.3,14.5z"/>
					
						<linearGradient id="Path_67753_1_" gradientUnits="userSpaceOnUse" x1="-1258.1678" y1="537.5363" x2="-1258.2618" y2="537.4563" gradientTransform="matrix(38.144 0 0 -53.201 47158.1992 28635.5469)">
						<stop  offset="0" style="stop-color:#FFDA59"/>
						<stop  offset="1" style="stop-color:#A16800"/>
					</linearGradient>
					<path id="Path_67753" class="st37" d="M-810,14.2l-31.4,18.1c-1.7,1.1-2.8,3-2.9,5.1l0,3.2v24.2c0,1-0.7,1.5-1.5,1.1v0.8
						c1.3,0.6,2.3,0,2.3-1.5V38l0,0v-0.2c0.1-2.1,1.2-3.9,2.9-5.1l31.4-18.1c0.5-0.3,1-0.4,1.5-0.4C-808.5,13.6-809.4,13.7-810,14.2
						z"/>
				</g>
			</g>
			<g id="Group_23080" transform="translate(0 29.172)">
				<path id="Path_67754" class="st29" d="M-845.9,40.7l46.2,26.5V43l-46.2-26.5L-845.9,40.7z"/>
				<path id="Path_67755" class="st18" d="M-845.9,13.8v2.7l46.2,26.5l2.4-1.4L-845.9,13.8z"/>
				<path id="Path_67756" class="st30" d="M-843.7,17.8l-2.3-1.3v24.2l2.3,1.3L-843.7,17.8z"/>
				<path id="Path_67757" class="st30" d="M-841.5,16.3l-4.4-2.5v2.7l2,1.2L-841.5,16.3z"/>
			</g>
			<g id="Group_23081" transform="translate(43.47 25.126)">
				<path id="Path_67758" class="st16" d="M-795.8,47.8l-46.8,27v-32l46.8-27V47.8z"/>
				<path id="Path_67759" class="st17" d="M-845.9,72.8l3.3,2v-32l-3.3-2L-845.9,72.8z"/>
				<path id="Path_67760" class="st18" d="M-799.1,13.8l-46.8,27l3.3,2l46.8-27L-799.1,13.8z"/>
			</g>
			<g id="Group_23082" transform="translate(61.822 50.227)">
				<path id="Path_67761" class="st18" d="M-830.7,22.5c3.3-2,5.9-5.1,7.2-8.8l-3.9,2.3c0,0,0,3.4-4.3,5.9s-10.2,2.5-10.2,2.5
					l-3.9,2.3C-845.9,26.7-836.2,25.7-830.7,22.5z"/>
				<path id="Path_67762" class="st38" d="M-830.7,22.5c-5.4,3.1-15.2,4.2-15.2,4.2V28c0,0,9.7-1,15.2-4.2c3.3-2,5.9-5.1,7.2-8.8
					v-1.3C-824.9,17.4-827.4,20.5-830.7,22.5z"/>
			</g>
		</g>
		<g id="Group_23086" transform="translate(300.461 155.039)">
			<g id="Group_23084" transform="translate(0 0)">
				<path id="Path_67763" class="st20" d="M-845.9,42.2l49.3-28.5v34.9l-49.3,28.5V42.2z"/>
				<path id="Path_67764" class="st16" d="M-797.9,48l-46.8,27V43l46.8-27V48z"/>
			</g>
			<g id="Group_23085" transform="translate(16.309 25.315)">
				<path id="Path_67765" class="st18" d="M-830.7,22.5c3.3-2,5.9-5.1,7.2-8.8l-3.9,2.3c0,0,0,3.4-4.3,5.9s-10.2,2.5-10.2,2.5
					l-3.9,2.3C-845.9,26.7-836.2,25.7-830.7,22.5z"/>
				<path id="Path_67766" class="st38" d="M-830.7,22.5c-5.4,3.1-15.2,4.2-15.2,4.2V28c0,0,9.7-1,15.2-4.2c3.3-2,5.9-5.1,7.2-8.8
					v-1.3C-824.9,17.4-827.4,20.5-830.7,22.5z"/>
			</g>
		</g>
		<g id="Group_23089" transform="translate(300.461 194.934)">
			<g id="Group_23087">
				<path id="Path_67767" class="st20" d="M-845.9,42.2l49.3-28.5v34.9l-49.3,28.5V42.2z"/>
				<path id="Path_67768" class="st16" d="M-797.9,48l-46.8,27V43l46.8-27V48z"/>
			</g>
			<g id="Group_23088" transform="translate(16.309 25.315)">
				<path id="Path_67769" class="st18" d="M-830.7,22.5c3.3-2,5.9-5.1,7.2-8.8l-3.9,2.3c0,0,0,3.4-4.3,5.9s-10.2,2.5-10.2,2.5
					l-3.9,2.3C-845.9,26.7-836.2,25.7-830.7,22.5z"/>
				<path id="Path_67770" class="st38" d="M-830.7,22.5c-5.4,3.1-15.2,4.2-15.2,4.2V28c0,0,9.7-1,15.2-4.2c3.3-2,5.9-5.1,7.2-8.8
					v-1.3C-824.9,17.4-827.4,20.5-830.7,22.5z"/>
			</g>
		</g>
		<g id="Group_23093" transform="translate(169.91 201.325)">
			<g id="Group_23090">
				<path id="Path_67771" class="st18" d="M-824.4,25c2.3-6.2,8.5-8,15.8-3.8c7.1,4.1,13.1,12.7,15.6,21.3c2.8-0.8,6.2-0.2,10,2
					c8.7,5,15.8,16.8,16.7,27c0,0,0.1,0,0.1,0c9.3,5.4,16.8,18.4,16.8,29.1s-7.5,15-16.8,9.7l-57.4-33.1
					c-12.4-7.1-22.4-24.5-22.4-38.8C-845.9,24.4-836.3,18.5-824.4,25z"/>
				<path id="Path_67772" class="st39" d="M-749.4,100.5c0-10.7-7.5-23.7-16.8-29.1c0,0-0.1,0-0.1,0c-0.9-10.3-8-22-16.7-27
					c-3.7-2.2-7.2-2.7-10-2c-2.5-8.6-8.5-17.2-15.6-21.3c-7.3-4.2-13.5-2.4-15.8,3.8c-5.8-3.1-11-3.3-14.9-1.2l8.8-5
					c3.3-1.9,7.6-2.1,12.4-0.1l6.7-3.8c3-1.7,7.2-1.4,11.8,1.2c7.1,4.1,13.1,12.7,15.6,21.3c2.8-0.8,6.2-0.2,10,2
					c8.7,5,15.8,16.8,16.7,27c0,0,0.1,0,0.1,0c9.3,5.4,16.8,18.4,16.8,29.1c0,5.3-1.8,9-4.8,10.8l-9,5.1
					C-751.2,109.5-749.4,105.8-749.4,100.5z"/>
			</g>
			<g id="Group_23092" transform="translate(39.59 36.906)">
				<g id="Group_23091">
					<path id="Path_67773" class="st39" d="M-841.1,35.8l1.6-11.6c-2.2-2.1-3.5-4.9-3.6-7.9c0-0.9,0.2-1.7,0.6-2.5
						c-2-0.3-3.4,1.1-3.4,3.7c0.2,3,1.5,5.8,3.6,7.9l-1.6,11.6l6.5,3.8l-0.4-3.1L-841.1,35.8z"/>
				</g>
				<path id="Path_67774" class="st40" d="M-840.7,14.5c-0.6-0.3-1.2-0.6-1.9-0.7c-0.4,0.8-0.6,1.6-0.6,2.5c0.2,3,1.5,5.8,3.6,7.9
					l-1.6,11.6l3.4,2l-1.3-10.5c1,0.3,2.1-0.1,2.8-0.9l0.2-0.3c0.4-0.8,0.6-1.6,0.6-2.5C-835.6,19.9-837.5,16.5-840.7,14.5z"/>
			</g>
		</g>
	</g>
</g>
<g id="Lights_and_texts">
</g>
</svg>
